<svg width="130" height="25" viewBox="0 0 130 25" fill="none" xmlns="http://www.w3.org/2000/svg">
<g clip-path="url(#clip0_899_13816)">
<rect y="0.863037" width="130" height="24" rx="12" fill="#DEEBFF"/>
<path d="M13.032 16.863V7.68304H14.952L18.312 13.311C18.72 13.995 18.9 14.511 18.9 14.511H18.936V7.68304H20.472V16.863H18.624L15.216 11.175C14.772 10.443 14.592 9.96304 14.592 9.96304H14.568V16.863H13.032ZM26.2816 13.047V12.975C26.2216 12.015 25.8496 11.367 24.9616 11.367C24.1336 11.367 23.6776 12.003 23.5696 13.047H26.2816ZM27.8536 15.063C27.6496 16.287 26.6296 17.019 24.9856 17.019C22.9696 17.019 21.9256 15.675 21.9256 13.671C21.9256 11.727 23.0416 10.311 24.9736 10.311C27.0736 10.311 27.9256 11.751 27.9256 13.539V14.055H23.5576C23.6296 15.267 24.0976 15.903 25.0456 15.903C25.9096 15.903 26.1616 15.447 26.2696 15.063H27.8536ZM30.5311 16.863L28.6231 10.467H30.1951L31.1791 14.079C31.3231 14.631 31.4071 15.231 31.4071 15.231H31.4431C31.4431 15.231 31.5631 14.631 31.7311 14.079L32.8231 10.467H34.2151L35.3071 14.079C35.4751 14.631 35.5951 15.231 35.5951 15.231H35.6311C35.6311 15.231 35.7511 14.631 35.8831 14.079L36.8671 10.467H38.3191L36.4231 16.863H34.8271L33.9151 13.899C33.6991 13.179 33.4951 12.159 33.4951 12.159H33.4711C33.4711 12.159 33.2311 13.191 33.0151 13.899L32.0911 16.863H30.5311ZM42.4084 16.863V7.40704H44.0284V11.463H44.0524C44.3764 10.839 45.0604 10.323 46.0084 10.323C47.4484 10.323 48.5764 11.235 48.5764 13.623C48.5764 15.855 47.4724 17.019 45.9004 17.019C44.9284 17.019 44.3044 16.539 43.9684 15.939H43.9444V16.863H42.4084ZM45.4924 15.891C46.4284 15.891 46.9444 15.111 46.9444 13.635C46.9444 12.279 46.5364 11.475 45.4804 11.475C44.5804 11.475 43.9924 12.219 43.9924 13.287V13.971C43.9924 15.063 44.4964 15.891 45.4924 15.891ZM53.9964 13.047V12.975C53.9364 12.015 53.5644 11.367 52.6764 11.367C51.8484 11.367 51.3924 12.003 51.2844 13.047H53.9964ZM55.5684 15.063C55.3644 16.287 54.3444 17.019 52.7004 17.019C50.6844 17.019 49.6404 15.675 49.6404 13.671C49.6404 11.727 50.7564 10.311 52.6884 10.311C54.7884 10.311 55.6404 11.751 55.6404 13.539V14.055H51.2724C51.3444 15.267 51.8124 15.903 52.7604 15.903C53.6244 15.903 53.8764 15.447 53.9844 15.063H55.5684ZM57.5259 8.65504H58.9299V10.467H60.4179V11.619H58.9539V14.775C58.9539 15.435 59.2059 15.711 59.8539 15.711C60.1299 15.711 60.4539 15.663 60.4539 15.663V16.875C60.2979 16.899 59.8299 16.959 59.2899 16.959C58.0299 16.959 57.3579 16.395 57.3579 15.063V11.619H56.3259V10.491H56.5419C57.3699 10.491 57.5259 10.311 57.5259 9.12304V8.65504ZM63.9953 15.867C64.7033 15.867 65.4473 15.339 65.4473 14.091V13.911C64.3193 13.971 63.7193 14.067 63.3833 14.307C63.1553 14.463 63.0593 14.703 63.0593 15.003C63.0593 15.531 63.4073 15.867 63.9953 15.867ZM63.2873 12.315H61.7393C61.7873 11.091 62.7593 10.323 64.3793 10.323C66.2753 10.323 67.0073 11.103 67.0073 12.807V15.159C67.0073 15.567 67.1273 15.723 67.5473 15.723V16.887H67.0912C66.1433 16.887 65.7353 16.647 65.5673 15.915H65.5313C65.1593 16.575 64.4873 16.947 63.5633 16.947C62.2553 16.947 61.4513 16.251 61.4513 15.075C61.4513 14.343 61.7633 13.803 62.4113 13.467C63.0833 13.119 64.0553 13.035 65.4353 12.975V12.651C65.4353 11.787 65.0993 11.391 64.3673 11.391C63.6233 11.391 63.3113 11.811 63.2873 12.315ZM73.3478 13.971C73.3478 15.063 73.8518 15.891 74.8478 15.891C75.7838 15.891 76.2998 15.111 76.2998 13.635C76.2998 12.279 75.8918 11.475 74.8358 11.475C73.9478 11.475 73.3478 12.219 73.3478 13.287V13.971ZM71.7638 19.119V10.467H73.3238V11.523H73.3478C73.6718 10.911 74.3558 10.323 75.3638 10.323C76.8038 10.323 77.9318 11.235 77.9318 13.623C77.9318 15.819 76.8158 17.019 75.2318 17.019C74.3078 17.019 73.6598 16.539 73.4078 16.023H73.3838V19.119H71.7638ZM79.3693 16.863V10.467H80.8933V11.763H80.9173C81.2533 10.899 82.1173 10.359 83.0053 10.359H83.1133V11.871H82.8133C81.6733 11.871 80.9773 12.351 80.9773 13.587V16.863H79.3693ZM86.9086 17.019C84.9286 17.019 83.8006 15.723 83.8006 13.659C83.8006 11.607 84.9886 10.311 86.9206 10.311C88.8526 10.311 90.0166 11.595 90.0166 13.659C90.0166 15.723 88.7806 17.019 86.9086 17.019ZM86.9086 11.427C85.8886 11.427 85.4686 12.351 85.4686 13.659C85.4686 15.015 85.8886 15.891 86.9206 15.891C87.9646 15.891 88.3486 14.979 88.3486 13.659C88.3486 12.327 87.9526 11.427 86.9086 11.427ZM95.6862 14.127V13.395C95.6862 12.195 95.1102 11.475 94.2342 11.475C93.2622 11.475 92.7222 12.243 92.7222 13.683C92.7222 15.027 93.1302 15.891 94.1742 15.891C95.1342 15.891 95.6862 15.135 95.6862 14.127ZM97.2822 7.40704V16.863H95.7342V15.879H95.6982C95.3742 16.467 94.7502 17.019 93.7542 17.019C92.1822 17.019 91.0782 16.035 91.0782 13.731C91.0782 11.499 92.2542 10.323 93.8622 10.323C94.7262 10.323 95.3502 10.767 95.6382 11.355H95.6622V7.40704H97.2822ZM100.687 10.467V14.271C100.687 14.727 100.711 15.147 100.903 15.411C101.083 15.675 101.383 15.795 101.767 15.795C102.727 15.795 103.195 15.147 103.195 13.959V10.467H104.803V16.863H103.255V15.807H103.231C102.919 16.455 102.259 16.995 101.227 16.995C99.7991 16.995 99.0911 16.299 99.0911 14.799V10.467H100.687ZM112.135 12.639H110.551C110.491 11.967 110.119 11.427 109.327 11.427C108.283 11.427 107.875 12.423 107.875 13.647C107.875 14.799 108.163 15.879 109.315 15.879C110.275 15.879 110.587 15.159 110.611 14.595H112.171C112.075 16.203 110.887 17.019 109.303 17.019C107.323 17.019 106.219 15.747 106.219 13.671C106.219 11.643 107.395 10.311 109.327 10.311C110.887 10.311 112.063 11.055 112.135 12.639ZM113.999 8.65504H115.403V10.467H116.891V11.619H115.427V14.775C115.427 15.435 115.679 15.711 116.327 15.711C116.603 15.711 116.927 15.663 116.927 15.663V16.875C116.771 16.899 116.303 16.959 115.763 16.959C114.503 16.959 113.831 16.395 113.831 15.063V11.619H112.799V10.491H113.015C113.843 10.491 113.999 10.311 113.999 9.12304V8.65504Z" fill="#0057E0"/>
</g>
<defs>
<clipPath id="clip0_899_13816">
<rect y="0.863037" width="130" height="24" rx="12" fill="white"/>
</clipPath>
</defs>
</svg>
